<svg aria-hidden="true" style="width:0;height:0;position:absolute;overflow:hidden" xmlns="http://www.w3.org/2000/svg"><defs><symbol id="logo" viewBox="0 0 32 32"><path stroke-linecap="round" stroke-linejoin="round" stroke-width="2" d="M20 2H4L2 4v16l2 2h16l2-2V4l-2-2ZM7 2v20M17 2v20M2 12h20M2 7h5M2 17h5m10 0h5M17 7h5"/></symbol><symbol id="loupe" viewBox="0 0 12 12" fill="none" xmlns="http://www.w3.org/2000/svg"><path d="M5.5 9.5a4 4 0 1 0 0-8 4 4 0 0 0 0 8ZM10.5 10.5 8.325 8.325" stroke-linecap="round" stroke-linejoin="round"/></symbol><symbol id="arrow-left" viewBox="0 0 16 16" fill="none" xmlns="http://www.w3.org/2000/svg"><path d="M12.667 8H3.333M8 12.667 3.333 8 8 3.333" stroke-width="1.333" stroke-linecap="round" stroke-linejoin="round"/></symbol><symbol id="arrow-right" viewBox="0 0 16 16" fill="none" xmlns="http://www.w3.org/2000/svg"><path d="M3.333 8h9.334M8 12.667 12.667 8 8 3.333" stroke-width="1.333" stroke-linecap="round" stroke-linejoin="round"/></symbol><symbol id="heart" viewBox="0 0 14 14" fill="none" xmlns="http://www.w3.org/2000/svg"><path d="m7 13.188-.98-.97C2.38 9.03 0 6.88 0 4.248 0 2.097 1.68.435 3.85.435 5.04.436 6.23.99 7 1.89A4.224 4.224 0 0 1 10.15.436C12.32.436 14 2.099 14 4.247c0 2.634-2.38 4.783-6.02 7.97l-.98.971Z" fill="#FF6B08"/></symbol><symbol id="close" viewBox="0 0 32 32"><path d="M30 24.398 21.594 16 30 7.602 24.398 2 16 10.402 7.598 2 2 7.602 10.398 16 2 24.398 7.598 30 16 21.598 24.398 30z"/></symbol><symbol id="icon-arrow-up2" viewBox="0 0 32 32"><path d="m27.414 12.586-10-10a2 2 0 0 0-2.828 0l-10 10a2 2 0 1 0 2.828 2.828L14 8.828V28a2 2 0 1 0 4 0V8.828l6.586 6.586c.39.39.902.586 1.414.586s1.024-.195 1.414-.586a2 2 0 0 0 0-2.828z"/></symbol><symbol id="github" viewBox="0 0 24 24"><path d="M12 0C5.374 0 0 5.373 0 12c0 5.302 3.438 9.8 8.207 11.387.599.111.793-.261.793-.577v-2.234c-3.338.726-4.033-1.416-4.033-1.416-.546-1.387-1.333-1.756-1.333-1.756-1.089-.745.083-.729.083-.729 1.205.084 1.839 1.237 1.839 1.237 1.07 1.834 2.807 1.304 3.492.997.107-.775.418-1.305.762-1.604-2.665-.305-5.467-1.334-5.467-5.931 0-1.311.469-2.381 1.236-3.221-.124-.303-.535-1.524.117-3.176 0 0 1.008-.322 3.301 1.23A11.509 11.509 0 0 1 12 5.803c1.02.005 2.047.138 3.006.404 2.291-1.552 3.297-1.23 3.297-1.23.653 1.653.242 2.874.118 3.176.77.84 1.235 1.911 1.235 3.221 0 4.609-2.807 5.624-5.479 5.921.43.372.823 1.102.823 2.222v3.293c0 .319.192.694.801.576C20.566 21.797 24 17.3 24 12c0-6.627-5.373-12-12-12z"/></symbol></defs></svg>