<svg aria-hidden="true" style="width:0;height:0;position:absolute;overflow:hidden" xmlns="http://www.w3.org/2000/svg"><defs><symbol id="logo" viewBox="0 0 32 32"><path stroke="#fff" stroke-linecap="round" stroke-linejoin="round" stroke-width="2" d="M20 2H4L2 4v16l2 2h16l2-2V4l-2-2ZM7 2v20M17 2v20M2 12h20M2 7h5M2 17h5m10 0h5M17 7h5"/></symbol><symbol id="loupe" viewBox="0 0 12 12" fill="none" xmlns="http://www.w3.org/2000/svg"><path d="M5.5 9.5a4 4 0 1 0 0-8 4 4 0 0 0 0 8ZM10.5 10.5 8.325 8.325" stroke="#fff" stroke-linecap="round" stroke-linejoin="round"/></symbol><symbol id="arrow-left" viewBox="0 0 16 16" fill="none" xmlns="http://www.w3.org/2000/svg"><path d="M12.667 8H3.333M8 12.667 3.333 8 8 3.333" stroke-width="1.333" stroke-linecap="round" stroke-linejoin="round"/></symbol><symbol id="arrow-right" viewBox="0 0 16 16" fill="none" xmlns="http://www.w3.org/2000/svg"><path d="M3.333 8h9.334M8 12.667 12.667 8 8 3.333" stroke-width="1.333" stroke-linecap="round" stroke-linejoin="round"/></symbol><symbol id="heart" viewBox="0 0 14 14" fill="none" xmlns="http://www.w3.org/2000/svg"><path d="m7 13.188-.98-.97C2.38 9.03 0 6.88 0 4.248 0 2.097 1.68.435 3.85.435 5.04.436 6.23.99 7 1.89A4.224 4.224 0 0 1 10.15.436C12.32.436 14 2.099 14 4.247c0 2.634-2.38 4.783-6.02 7.97l-.98.971Z" fill="#FF6B08"/></symbol><symbol id="close" xmlns="http://www.w3.org/2000/svg"><path stroke-width="2" d="m8 8 14 14M8 22 22 8"/></symbol></defs></svg>