<svg aria-hidden="true" style="position: absolute; width: 0; height: 0; overflow: hidden;" version="1.1"
    xmlns="http://www.w3.org/2000/svg"
    xmlns:xlink="http://www.w3.org/1999/xlink">
    <defs>
        <symbol id='logo' viewBox="0 0 32 32" width="28" height="28">
            <path stroke="#fff" stroke-linecap="round" stroke-linejoin="round" stroke-width="2" d="M20 2H4L2 4v16l2 2h16l2-2V4l-2-2ZM7 2v20M17 2v20M2 12h20M2 7h5M2 17h5M17 17h5M17 7h5"/>
        </symbol>
        <symbol id="loupe" width="12" height="12" viewBox="0 0 12 12" fill="none"
            xmlns="http://www.w3.org/2000/svg">
            <path d="M5.5 9.5C7.70914 9.5 9.5 7.70914 9.5 5.5C9.5 3.29086 7.70914 1.5 5.5 1.5C3.29086 1.5 1.5 3.29086 1.5 5.5C1.5 7.70914 3.29086 9.5 5.5 9.5Z" stroke="white" stroke-linecap="round" stroke-linejoin="round"/>
            <path d="M10.5 10.5002L8.32495 8.3252" stroke="white" stroke-linecap="round" stroke-linejoin="round"/>
        </symbol>
        <symbol id="arrow-left" width="16" height="16" viewBox="0 0 16 16" fill="none"
            xmlns="http://www.w3.org/2000/svg">
            <path d="M12.6666 8H3.33325" stroke-width="1.33333" stroke-linecap="round" stroke-linejoin="round"/>
            <path d="M7.99992 12.6667L3.33325 8.00004L7.99992 3.33337" stroke-width="1.33333" stroke-linecap="round" stroke-linejoin="round"/>
        </symbol>
        <symbol id="arrow-right" width="16" height="16" viewBox="0 0 16 16" fill="none"
            xmlns="http://www.w3.org/2000/svg">
            <path d="M3.33341 8H12.6667" stroke-width="1.33333" stroke-linecap="round" stroke-linejoin="round"/>
            <path d="M8.00008 12.6667L12.6667 8.00004L8.00008 3.33337" stroke-width="1.33333" stroke-linecap="round" stroke-linejoin="round"/>
        </symbol>
        <symbol id="heart" width="14" height="14" viewBox="0 0 14 14" fill="none"
            xmlns="http://www.w3.org/2000/svg">
            <path d="M7 13.188L6.02 12.2177C2.38 9.02961 0 6.88109 0 4.24743C0 2.09891 1.68 0.435547 3.85 0.435547C5.04 0.435547 6.23 0.990002 7 1.89099C7.77 0.990002 8.96 0.435547 10.15 0.435547C12.32 0.435547 14 2.09891 14 4.24743C14 6.88109 11.62 9.02961 7.98 12.2177L7 13.188Z" fill="#FF6B08"/>
        </symbol>
        <symbol id="close"
            xmlns="http://www.w3.org/2000/svg" width="30" height="30">
            <path stroke-width="2" d="m8 8 14 14M8 22 22 8"/>
        </symbol>



    </defs>
</svg>
    